<?xml version="1.0" encoding="utf-8"?>
<!-- Generator: Adobe Illustrator 16.0.0, SVG Export Plug-In . SVG Version: 6.00 Build 0)  -->
<!DOCTYPE svg PUBLIC "-//W3C//DTD SVG 1.1//EN" "http://www.w3.org/Graphics/SVG/1.1/DTD/svg11.dtd">
<svg version="1.1" id="Layer_1" xmlns="http://www.w3.org/2000/svg" xmlns:xlink="http://www.w3.org/1999/xlink" x="0px" y="0px"
	 width="30px" height="30px" viewBox="0 0 30 30" enable-background="new 0 0 30 30" xml:space="preserve">
<g id="chordfive">
	<path fill="#A9CF38" d="M15.022,13.571L2.691,10.986c0.16-0.497,0.494-0.938,0.963-1.201l9.637-5.413
		c0.472-0.263,1.09-0.396,1.709-0.396L15.022,13.571z"/>
	<path fill="#C3D946" d="M15,3.977c0.62-0.002,1.239,0.13,1.709,0.396l9.637,5.413c0.456,0.256,0.782,0.676,0.949,1.154
		l-12.272,2.632L15,3.977z"/>
	<path fill="#99B63C" d="M15.022,13.571L9.278,25.476c-0.444-0.313-0.814-0.719-1.02-1.161L2.773,12.523
		c-0.227-0.49-0.242-1.042-0.082-1.537L15.022,13.571z"/>
	<path fill="#99B63C" d="M11.045,26.093c-0.59,0-1.232-0.239-1.767-0.617l5.744-11.905l5.658,11.933
		c-0.525,0.36-1.149,0.589-1.723,0.589H11.045z"/>
	<path fill="#A9CF38" d="M15.022,13.571l12.272-2.632c0.175,0.508,0.168,1.079-0.066,1.584l-5.484,11.792
		c-0.213,0.456-0.6,0.874-1.063,1.189L15.022,13.571z"/>
</g>
</svg>
