<?xml version="1.0" encoding="utf-8"?>
<!-- Generator: Adobe Illustrator 16.0.0, SVG Export Plug-In . SVG Version: 6.00 Build 0)  -->
<!DOCTYPE svg PUBLIC "-//W3C//DTD SVG 1.1//EN" "http://www.w3.org/Graphics/SVG/1.1/DTD/svg11.dtd">
<svg version="1.1" id="Layer_1" xmlns="http://www.w3.org/2000/svg" xmlns:xlink="http://www.w3.org/1999/xlink" x="0px" y="0px"
	 width="30px" height="30px" viewBox="0 0 30 30" enable-background="new 0 0 30 30" xml:space="preserve">
<g id="chordfour">
	<path fill="#C3D946" d="M15.001,1.396c0.551,0,1.101,0.314,1.518,0.943l8.843,13.31c0.386,0.58,0.552,1.296,0.516,2.005H15.001
		V1.396z"/>
	<path fill="#A9CF38" d="M4.124,17.654c-0.037-0.709,0.132-1.425,0.516-2.005l8.844-13.31c0.417-0.628,0.967-0.943,1.518-0.943
		v16.258H4.124z"/>
	<path fill="#A9CF38" d="M15.001,17.654h10.876c-0.042,0.828-0.361,1.645-0.937,2.22l-8,7.999c-0.532,0.534-1.236,0.8-1.939,0.8
		V17.654z"/>
	<path fill="#99B63C" d="M5.062,19.874c-0.574-0.575-0.895-1.392-0.938-2.22h10.877v11.019c-0.703,0-1.406-0.266-1.938-0.8
		L5.062,19.874z"/>
</g>
</svg>
