<?xml version="1.0" encoding="utf-8"?>
<!-- Generator: Adobe Illustrator 16.0.0, SVG Export Plug-In . SVG Version: 6.00 Build 0)  -->
<!DOCTYPE svg PUBLIC "-//W3C//DTD SVG 1.1//EN" "http://www.w3.org/Graphics/SVG/1.1/DTD/svg11.dtd">
<svg version="1.1" id="Layer_1" xmlns="http://www.w3.org/2000/svg" xmlns:xlink="http://www.w3.org/1999/xlink" x="0px" y="0px"
	 width="500px" height="220px" viewBox="0 0 500 220" enable-background="new 0 0 500 220" xml:space="preserve">
<g id="chordnode">
	<g id="background">
		<polygon fill="#A9CF38" points="317.086,203.445 306.912,173.773 292.464,180.815 260.713,205.951 237.198,202.729 
			193.398,150.587 139.382,159.59 116.84,134.087 104.531,134.001 91.273,128.623 55.657,122.651 24.176,128.479 12.823,109 
			24.176,89.521 55.657,95.349 91.273,89.377 104.533,83.998 116.867,83.87 139.382,58.41 193.398,67.413 237.198,15.271 
			260.713,12.049 292.454,37.177 306.734,44.587 317.084,14.555 363.924,6.748 372.523,17.333 412.732,17.333 438.883,74.357 
			478.963,99.15 485.783,109 478.963,118.85 438.883,143.643 412.732,200.667 372.523,200.667 363.924,211.252 		"/>
	</g>
	<g id="emitters">
		<g>
			<path fill="#788938" d="M433.779,63.783c-1.5,0.685-3.289,0.017-3.975-1.484l-14.115-30.932c-0.685-1.501-0.018-3.29,1.484-3.975
				l1.744-0.797c1.5-0.685,3.289-0.017,3.975,1.484l14.115,30.932c0.685,1.501,0.018,3.29-1.484,3.975L433.779,63.783z"/>
		</g>
		<g>
			<path fill="#788938" d="M476.029,97.486c-0.873,1.399-2.732,1.83-4.133,0.956L443.053,80.44c-1.399-0.874-1.83-2.734-0.956-4.134
				l1.015-1.627c0.873-1.399,2.733-1.83,4.133-0.956l28.844,18.002c1.4,0.874,1.83,2.734,0.957,4.134L476.029,97.486z"/>
		</g>
		<g>
			<path fill="#788938" d="M226.249,192.839c-1.255,1.07-3.159,0.919-4.229-0.336l-22.064-25.869
				c-1.071-1.255-0.919-3.158,0.336-4.229l1.458-1.243c1.255-1.071,3.159-0.92,4.229,0.335l22.064,25.87
				c1.071,1.255,0.919,3.158-0.336,4.229L226.249,192.839z"/>
		</g>
		<g>
			<path fill="#788938" d="M185.318,153.675c0.27,1.628-0.842,3.181-2.469,3.45l-33.542,5.561c-1.627,0.27-3.18-0.842-3.45-2.47
				l-0.313-1.891c-0.27-1.628,0.841-3.181,2.469-3.45l33.543-5.561c1.627-0.27,3.18,0.842,3.45,2.47L185.318,153.675z"/>
		</g>
		<g>
			<path fill="#788938" d="M359.241,212.379c-0.273,1.628-1.829,2.735-3.456,2.462l-33.529-5.635
				c-1.627-0.273-2.735-1.828-2.462-3.456l0.317-1.891c0.273-1.627,1.828-2.734,3.455-2.461l33.531,5.636
				c1.627,0.273,2.734,1.828,2.461,3.456L359.241,212.379z"/>
		</g>
		<g>
			<path fill="#788938" d="M417.043,190.403c-1.496-0.695-2.152-2.488-1.457-3.984l14.318-30.837
				c0.695-1.496,2.488-2.152,3.985-1.458l1.738,0.808c1.497,0.694,2.153,2.487,1.458,3.983l-14.32,30.838
				c-0.695,1.496-2.488,2.152-3.984,1.457L417.043,190.403z"/>
		</g>
		<g>
			<path fill="#788938" d="M228.103,26.265c1.263,1.062,1.428,2.964,0.366,4.228l-21.878,26.025
				c-1.062,1.264-2.963,1.428-4.227,0.366l-1.467-1.232c-1.263-1.062-1.428-2.964-0.366-4.228l21.878-26.025
				c1.062-1.264,2.963-1.428,4.227-0.366L228.103,26.265z"/>
		</g>
	</g>
	<g id="facets">
		<polygon fill="#B0D23E" points="413.374,16.333 382,86 373,16.333 		"/>
		<polygon fill="#9CBC3C" points="372,126 311.5,94 306.333,175 		"/>
		<polygon fill="#99B63C" points="293,181.667 311.5,94 306.333,175 		"/>
		<polygon fill="#A9CF38" points="311.5,94 222.5,137.834 293,181.667 		"/>
		<polygon fill="#99B63C" points="293,181.667 222.5,137.834 261,207 		"/>
		<polygon fill="#D3DF43" points="311.5,94 262,64 222.5,137.834 		"/>
		<polygon fill="#9CBC3C" points="236.68,203.667 222.5,137.834 261,207 		"/>
		<polygon fill="#C9DB43" points="236.68,14.333 262,64 261,11 		"/>
		<polygon fill="#D3DF43" points="193,66.333 236.68,14.333 262,64 		"/>
		<polygon fill="#A9CF38" points="116.333,135 169.43,89.5 139,160.667 		"/>
		<polygon fill="#D3DF43" points="116.333,83 169.43,89.5 139,57.333 		"/>
		<polygon fill="#C9DB43" points="193,66.333 169.43,89.5 139,57.333 		"/>
		<polygon fill="#99B63C" points="193,151.667 169.43,89.5 139,160.667 		"/>
		<polygon fill="#A0C53B" points="193,151.667 222.5,137.834 236.68,203.667 		"/>
		<polygon fill="#B0D23E" points="169.43,89.5 222.5,137.834 193,151.667 		"/>
		<polygon fill="#D3DF43" points="193,66.333 222.5,137.834 169.43,89.5 		"/>
		<polygon fill="#C1D846" points="193,66.333 262,64 222.5,137.834 		"/>
		<polygon fill="#AAD03A" points="293,36.333 262,64 261,11 		"/>
		<polygon fill="#C1D846" points="262,64 293,36.333 306.333,43 		"/>
		<polygon fill="#B0D23E" points="306.333,43 311.5,94 262,64 		"/>
		<polygon fill="#D3DF43" points="316.333,13.666 348.666,50.166 306.333,43 		"/>
		<polygon fill="#C9DB43" points="348.666,50.166 364.333,5.666 316.333,13.666 		"/>
		<polygon fill="#AAD03A" points="373,16.333 348.666,50.166 364.333,5.666 		"/>
		<polygon fill="#A0C53B" points="348.666,50.166 382,86 373,16.333 		"/>
		<polygon fill="#A9CF38" points="348.666,50.166 311.5,94 372,126 		"/>
		<polygon fill="#C9DB43" points="306.333,43 311.5,94 348.666,50.166 		"/>
		<polygon fill="#99B63C" points="439.666,144.334 411.334,112.084 413.374,201.667 		"/>
		<polygon fill="#A9CF38" points="413.374,201.667 372,126 411.334,112.084 		"/>
		<polygon fill="#9CBC3C" points="373,201.667 372,126 413.374,201.667 		"/>
		<polygon fill="#C9DB43" points="316.333,204.334 352.666,176.667 306.333,175 		"/>
		<polygon fill="#D3DF43" points="352.666,176.667 372,126 306.333,175 		"/>
		<polygon fill="#99B63C" points="352.666,176.667 364.333,212.334 373,201.667 		"/>
		<polygon fill="#99B63C" points="352.666,176.667 372,126 373,201.667 		"/>
		<polygon fill="#A9CF38" points="311.5,94 382,86 372,126 		"/>
		<polygon fill="#B0D23E" points="311.5,94 348.666,50.166 382,86 		"/>
		<polygon fill="#D3DF43" points="382,86 372,126 411.334,112.084 		"/>
		<polygon fill="#B0D23E" points="439.666,73.666 411.334,112.084 464.668,114.003 		"/>
		<polygon fill="#C1D846" points="411.334,112.084 382,86 439.666,73.666 		"/>
		<polygon fill="#A0C53B" points="439.666,73.666 413.374,16.333 382,86 		"/>
		<polygon fill="#A0C53B" points="464.668,114.003 479.666,98.409 439.666,73.666 		"/>
		<polygon fill="#9CBC3C" points="487,109 464.668,114.003 479.666,98.409 		"/>
		<polygon fill="#99B63C" points="479.666,119.591 464.668,114.003 487,109 		"/>
		<polygon fill="#99B63C" points="464.668,114.003 439.666,144.334 479.666,119.591 		"/>
		<polygon fill="#A9CF38" points="411.334,112.084 439.666,144.334 464.668,114.003 		"/>
		<polygon fill="#A9CF38" points="316.333,204.334 364.333,212.334 352.666,176.667 		"/>
		<polygon fill="#D3DF43" points="23.666,88.409 42.333,112.084 11.666,109 		"/>
		<polygon fill="#C9DB43" points="42.333,112.084 55.666,94.333 23.666,88.409 		"/>
		<polygon fill="#D3DF43" points="42.333,112.084 66,105.246 55.666,94.333 		"/>
		<polygon fill="#A9CF38" points="42.333,112.084 23.666,129.591 11.666,109 		"/>
		<polygon fill="#99B63C" points="42.333,112.084 23.666,129.591 55.666,123.667 		"/>
		<polygon fill="#9CBC3C" points="66,105.246 55.666,123.667 42.333,112.084 		"/>
		<polygon fill="#99B63C" points="66,105.246 91,129.591 55.666,123.667 		"/>
		<polygon fill="#D3DF43" points="91,88.409 99,112.084 104.333,83 		"/>
		<polygon fill="#C9DB43" points="91,88.409 66,105.246 55.666,94.333 		"/>
		<polygon fill="#B0D23E" points="91,88.409 99,112.084 66,105.246 		"/>
		<polygon fill="#9CBC3C" points="66,105.246 91,129.591 99,112.084 		"/>
		<polygon fill="#99B63C" points="99,112.084 91,129.591 104.333,135 		"/>
		<polygon fill="#B0D23E" points="116.333,83 116.333,135 169.43,89.5 		"/>
		<polygon fill="#C9DB43" points="116.333,83 99,112.084 104.333,83 		"/>
		<polygon fill="#A9CF38" points="99,112.084 116.333,135 116.333,83 		"/>
		<polygon fill="#99B63C" points="99,112.084 104.333,135 116.333,135 		"/>
	</g>
	<g id="outline">
		<path fill="none" stroke="#788938" stroke-width="2" stroke-miterlimit="10" d="M481.374,101.044
			c-0.939-1.356-2.856-3.177-4.259-4.045l-34.898-21.587c-1.402-0.868-3.113-2.806-3.801-4.305l-23.791-51.88
			c-0.688-1.499-2.602-2.727-4.251-2.727H376c-1.65,0-3.852-1.048-4.893-2.328l-4.883-6.011c-1.041-1.28-3.223-2.106-4.851-1.835
			l-42.082,7.014c-1.628,0.271-3.395,1.771-3.927,3.333l-8.064,23.654c-0.532,1.562-2.176,2.236-3.65,1.498l-7.968-3.983
			c-1.476-0.738-3.741-2.18-5.035-3.204L263.352,13.03c-1.293-1.024-3.689-1.679-5.324-1.455l-18.375,2.519
			c-1.635,0.224-3.84,1.441-4.902,2.704l-39.821,47.406c-1.062,1.263-3.261,2.075-4.889,1.804l-48.082-8.014
			c-1.627-0.271-3.853,0.519-4.945,1.756l-18.695,21.169c-1.092,1.237-3.336,2.249-4.986,2.249h-6c-1.65,0-4.251,0.508-5.78,1.128
			l-7.774,3.153c-1.529,0.62-4.111,1.352-5.738,1.624l-29.417,4.932c-1.627,0.272-4.286,0.25-5.908-0.05l-26.101-4.832
			c-1.622-0.3-3.629,0.62-4.46,2.046l-8.979,15.407c-0.831,1.426-0.831,3.758,0,5.184l8.979,15.407
			c0.831,1.426,2.838,2.346,4.46,2.046l26.101-4.832c1.622-0.3,4.281-0.322,5.908-0.05l29.417,4.932
			c1.627,0.272,4.209,1.004,5.738,1.624l7.774,3.153c1.529,0.62,4.13,1.128,5.78,1.128h6c1.65,0,3.894,1.012,4.986,2.249
			l18.695,21.169c1.092,1.237,3.317,2.027,4.945,1.756l48.082-8.014c1.627-0.271,3.827,0.541,4.889,1.804l39.821,47.406
			c1.062,1.263,3.267,2.479,4.902,2.704l18.375,2.519c1.635,0.224,4.031-0.431,5.324-1.455l27.296-21.608
			c1.294-1.024,3.56-2.466,5.035-3.204l7.968-3.983c1.475-0.738,3.118-0.064,3.65,1.498l8.064,23.654
			c0.532,1.562,2.299,3.062,3.927,3.333l42.082,7.014c1.628,0.271,3.81-0.555,4.851-1.835l4.883-6.011
			c1.041-1.28,3.242-2.328,4.893-2.328h34.374c1.649,0,3.562-1.228,4.251-2.728l23.791-51.879c0.688-1.499,2.398-3.437,3.801-4.305
			l34.898-21.587c1.402-0.868,3.319-2.688,4.259-4.045l3.917-5.657c0.939-1.357,0.939-3.576,0-4.934L481.374,101.044z"/>
	</g>
</g>
</svg>
