<?xml version="1.0" encoding="utf-8"?>
<!-- Generator: Adobe Illustrator 16.0.0, SVG Export Plug-In . SVG Version: 6.00 Build 0)  -->
<!DOCTYPE svg PUBLIC "-//W3C//DTD SVG 1.1//EN" "http://www.w3.org/Graphics/SVG/1.1/DTD/svg11.dtd">
<svg version="1.1" id="Layer_1" xmlns="http://www.w3.org/2000/svg" xmlns:xlink="http://www.w3.org/1999/xlink" x="0px" y="0px"
	 width="500px" height="220px" viewBox="0 0 500 220" enable-background="new 0 0 500 220" xml:space="preserve">
<g id="melodynode">
	<g id="background_2_">
		<polygon fill="#27AAE1" points="165.437,193.502 154.492,193.502 146.622,175.139 137.194,169.64 131.058,193.502 117.59,193.502 
			80.698,155.29 71.928,131.682 46.24,124.247 34.228,116.905 9.49,110.502 34.228,104.099 46.24,96.757 71.928,89.322 
			80.698,65.714 117.59,27.502 131.058,27.502 137.194,51.364 146.622,45.865 154.492,27.502 165.437,27.502 180.668,18.616 
			192.192,47.426 197.255,84.315 218.478,45.408 229.318,43.602 240.593,62.836 265.406,62.836 280.664,78.755 301.38,82.765 
			311.994,91.965 348.289,42.899 357.734,44.08 366.804,73.378 376.742,59.617 388.753,19.791 400.881,42.77 414.673,30.357 
			427.17,36.276 445.532,27.436 452.965,25.147 457.537,68.919 466.294,79.022 475.712,103.914 490.684,110.502 475.712,117.09 
			466.294,141.981 457.537,152.085 452.965,195.856 445.532,193.568 427.17,184.728 414.673,190.647 400.881,178.234 
			388.753,201.213 376.742,161.387 366.804,147.626 357.734,176.924 348.289,178.105 311.994,129.039 301.38,138.239 
			280.664,142.249 265.406,158.168 240.593,158.168 229.318,177.402 218.478,175.596 197.255,136.689 192.192,173.578 
			180.668,202.388 		"/>
	</g>
	<g id="emitters_2_">
		<g>
			<path fill="#207B9B" d="M110.584,188.805c-1.18,1.153-3.088,1.133-4.242-0.047L82.564,164.45
				c-1.154-1.18-1.133-3.089,0.047-4.242l1.371-1.342c1.18-1.153,3.088-1.133,4.242,0.047l23.776,24.308
				c1.154,1.18,1.133,3.089-0.047,4.242L110.584,188.805z"/>
		</g>
		<g>
			<path fill="#207B9B" d="M316.854,81.865c-1.328-0.979-1.614-2.867-0.635-4.195l20.179-27.368
				c0.979-1.328,2.867-1.613,4.195-0.634l1.543,1.138c1.328,0.979,1.614,2.867,0.635,4.195l-20.179,27.368
				c-0.979,1.328-2.867,1.613-4.195,0.634L316.854,81.865z"/>
		</g>
	</g>
	<g id="facets_2_">
		<polygon fill="#4DBFEE" points="493.166,110.502 476.499,103.168 459.896,110.502 		"/>
		<polygon fill="#2E9FD2" points="467.229,78.502 459.896,95.752 476.499,103.168 		"/>
		<polygon fill="#34B0E5" points="458.562,68.502 459.896,95.752 467.229,78.502 		"/>
		<polygon fill="#35AFE4" points="459.896,110.502 476.499,117.836 493.166,110.502 		"/>
		<polygon fill="#2E9FD2" points="467.229,142.502 447.729,136.171 476.499,117.836 		"/>
		<polygon fill="#2294C8" points="458.562,152.502 467.229,142.502 447.729,136.171 		"/>
		<polygon fill="#35C2F2" points="427.166,35.168 458.499,68.502 445.166,26.502 		"/>
		<polygon fill="#2294C8" points="447.729,136.171 445.229,194.502 453.896,197.17 		"/>
		<polygon fill="#2CA8D9" points="458.562,152.502 453.896,197.17 447.729,136.171 		"/>
		<polygon fill="#4DBFEE" points="414.562,29.168 409.063,78.502 459.896,95.752 427.166,35.168 		"/>
		<polygon fill="#35AFE4" points="447.729,136.171 427.229,185.836 445.229,194.502 		"/>
		<polygon fill="#4AC8F2" points="459.896,110.502 412.397,136.171 381.398,95.005 459.896,95.752 		"/>
		<polygon fill="#2CA8D9" points="447.729,136.171 412.397,136.171 459.896,110.502 		"/>
		<polygon fill="#6ECDE7" points="409.063,78.502 381.398,95.005 459.896,95.752 		"/>
		<polygon fill="#34B0E5" points="401.229,41.168 409.063,78.502 414.562,29.168 		"/>
		<polygon fill="#4AC8F2" points="388.562,17.168 381.398,95.005 409.063,78.502 401.229,41.168 		"/>
		<polygon fill="#6ECDE7" points="375.896,59.168 381.398,95.005 388.562,17.168 		"/>
		<polygon fill="#2A9DD3" points="412.397,136.171 414.562,191.836 427.229,185.836 447.729,136.171 		"/>
		<polygon fill="#4AC8F2" points="367.229,71.168 381.398,95.005 375.896,59.168 		"/>
		<polygon fill="#4DBFEE" points="412.397,136.171 375.896,161.836 367.166,149.836 381.398,95.005 		"/>
		<polygon fill="#2294C8" points="414.562,191.836 401.229,179.836 412.397,136.171 		"/>
		<polygon fill="#2CA8D9" points="375.896,161.836 388.562,203.836 401.229,179.836 412.397,136.171 		"/>
		<polygon fill="#34B0E5" points="381.398,95.005 335.565,105.672 358.562,43.168 367.229,71.172 		"/>
		<polygon fill="#2CA8D9" points="358.499,177.836 335.565,105.672 367.166,149.836 		"/>
		<polygon fill="#4AC8F2" points="358.562,43.168 347.896,41.834 335.565,105.672 		"/>
		<polygon fill="#35AFE4" points="358.499,177.836 347.896,179.17 335.565,105.672 		"/>
		<polygon fill="#6ECDE7" points="311.896,90.502 312.898,119.84 335.565,105.672 347.896,41.834 		"/>
		<polygon fill="#4DBFEE" points="347.896,179.17 311.833,130.502 312.898,119.84 335.565,105.672 		"/>
		<polygon fill="#2294C8" points="301.896,139.17 307.565,125.506 311.833,130.502 		"/>
		<polygon fill="#34B0E5" points="301.896,81.834 307.565,125.506 312.898,119.84 311.896,90.502 		"/>
		<polygon fill="#4AC8F2" points="281.229,77.834 307.565,125.506 301.896,81.834 		"/>
		<polygon fill="#35AFE4" points="301.896,139.17 307.565,125.506 281.229,143.17 		"/>
		<polygon fill="#2294C8" points="248.733,103.67 307.565,125.506 281.229,143.17 		"/>
		<polygon fill="#4DBFEE" points="265.896,61.836 281.229,77.834 307.565,125.506 248.733,103.67 		"/>
		<polygon fill="#27AAE1" points="281.229,143.17 265.896,159.168 248.733,103.67 		"/>
		<polygon fill="#4AC8F2" points="241.229,61.836 248.733,103.67 265.896,61.836 		"/>
		<polygon fill="#2CA8D9" points="241.229,159.168 265.896,159.168 248.733,103.67 		"/>
		<polygon fill="#6ECDE7" points="241.229,61.836 213.066,124.338 248.733,103.67 		"/>
		<polygon fill="#4DBFEE" points="241.229,159.168 213.066,124.338 248.733,103.67 		"/>
		<polygon fill="#2294C8" points="217.896,176.502 229.896,178.502 241.229,159.168 213.066,124.338 		"/>
		<polygon fill="#34B0E5" points="229.896,42.502 213.066,124.338 241.229,61.836 		"/>
		<polygon fill="#35C2F2" points="197.896,81.168 213.066,124.338 229.896,42.502 217.896,44.502 		"/>
		<polygon fill="#2CA8D9" points="197.896,139.836 213.066,124.338 217.896,176.502 		"/>
		<polygon fill="#4DBDEC" points="197.896,81.168 197.896,139.836 213.066,124.338 		"/>
		<polygon fill="#2FAAE1" points="193.229,47.168 174.569,114.836 197.896,81.168 		"/>
		<polygon fill="#35C2F2" points="193.229,173.836 197.896,139.836 197.896,81.168 174.569,114.836 		"/>
		<polygon fill="#2294C8" points="181.229,203.836 193.229,173.836 174.569,114.836 		"/>
		<polygon fill="#34B0E5" points="181.166,17.168 174.569,114.836 193.229,47.168 		"/>
		<polygon fill="#5BCAEE" points="157.066,61.836 165.166,26.502 181.166,17.168 		"/>
		<polygon fill="#46C8F5" points="174.569,114.836 157.066,61.836 181.166,17.168 		"/>
		<polygon fill="#35C2F2" points="153.833,26.502 157.066,61.836 165.166,26.502 		"/>
		<polygon fill="#5BCAEE" points="145.833,45.168 157.066,61.836 153.833,26.502 		"/>
		<polygon fill="#67CCE9" points="174.569,114.836 123.4,91.004 157.066,61.836 		"/>
		<polygon fill="#4DBFEE" points="181.229,203.836 152.899,148.837 174.569,114.836 		"/>
		<polygon fill="#2A9DD3" points="165.229,194.502 152.899,148.837 181.229,203.836 		"/>
		<polygon fill="#35AFE4" points="153.896,194.502 152.899,148.837 165.229,194.502 		"/>
		<polygon fill="#2CA8D9" points="145.896,175.836 152.899,148.837 153.896,194.502 		"/>
		<polygon fill="#4BBAEB" points="123.4,91.004 152.899,148.837 174.569,114.836 		"/>
		<polygon fill="#35C2F2" points="137.833,49.834 123.4,91.004 157.066,61.836 145.833,45.168 		"/>
		<polygon fill="#2A9DD3" points="152.899,148.837 137.896,171.17 145.896,175.836 		"/>
		<polygon fill="#2FAAE1" points="123.4,91.004 137.896,171.17 152.899,148.837 		"/>
		<polygon fill="#4AC8F5" points="117.166,26.502 137.833,49.834 131.896,26.502 		"/>
		<polygon fill="#34B0E5" points="123.4,91.004 117.166,26.502 137.833,49.834 		"/>
		<polygon fill="#4DBFEE" points="93.396,119.127 123.4,91.004 137.896,171.17 		"/>
		<polygon fill="#40B5E8" points="131.896,194.502 137.896,171.17 93.396,119.127 		"/>
		<polygon fill="#2E9FD2" points="79.896,155.834 93.396,119.127 117.229,194.502 		"/>
		<polygon fill="#35AEE3" points="131.896,194.502 117.229,194.502 93.396,119.127 		"/>
		<polygon fill="#27AAE1" points="71.229,132.502 93.396,119.127 79.896,155.834 		"/>
		<polygon fill="#46C8F5" points="79.833,65.17 123.4,91.004 117.166,26.502 		"/>
		<polygon fill="#4AC8F2" points="71.166,88.502 93.396,119.127 123.4,91.004 		"/>
		<polygon fill="#64CCEB" points="79.833,65.17 71.166,88.502 123.4,91.004 		"/>
		<polygon fill="#6ECDE7" points="71.229,132.502 71.166,88.502 93.396,119.127 		"/>
		<polygon fill="#40B6E9" points="71.229,132.502 45.833,95.834 71.166,88.502 		"/>
		<polygon fill="#4DBDEC" points="45.896,125.17 45.833,95.834 71.229,132.502 		"/>
		<polygon fill="#5BCAEE" points="33.896,103.168 45.896,125.17 45.833,95.834 		"/>
		<polygon fill="#3EC2F1" points="33.896,117.836 45.896,125.17 33.896,103.168 		"/>
		<polygon fill="#3EC2F1" points="33.896,103.168 17.373,107.419 33.896,117.836 		"/>
		<polygon fill="#229CC6" points="5.499,110.502 33.896,117.836 17.373,107.419 		"/>
		<polygon fill="#27AAE1" points="453.833,23.834 445.166,26.502 458.499,68.502 		"/>
		<polygon fill="#34B0E5" points="427.166,35.168 459.896,95.752 458.499,68.502 		"/>
		<polygon fill="#34B0E5" points="459.896,95.752 459.896,110.502 476.499,103.168 		"/>
		<polygon fill="#4DBFEE" points="459.896,110.502 447.729,136.171 476.499,117.836 		"/>
		<polygon fill="#2CA8D9" points="381.398,95.005 367.166,149.836 335.565,105.672 		"/>
		<polygon fill="#2294C8" points="312.898,119.84 307.565,125.506 311.833,130.502 		"/>
	</g>
	<g id="outline_2_">
		<path fill="none" stroke="#207B9B" stroke-width="2" stroke-miterlimit="10" d="M479.245,104.376
			c-1.511-0.665-3.224-2.471-3.808-4.014l-7.21-19.055c-0.584-1.543-1.945-3.826-3.026-5.073l-4.737-5.466
			c-1.081-1.247-2.105-3.61-2.276-5.251l-4.043-38.7c-0.171-1.641-1.602-2.587-3.179-2.101l-2.933,0.902
			c-1.577,0.486-4.084,1.468-5.57,2.184l-12.594,6.063c-1.486,0.716-3.923,0.723-5.414,0.017l-7.245-3.432
			c-1.491-0.706-3.715-0.381-4.94,0.723l-8.874,7.986c-1.226,1.104-2.859,0.813-3.63-0.646l-9.866-18.693
			c-0.771-1.459-1.79-1.361-2.267,0.219l-10.934,36.256c-0.477,1.58-1.656,3.966-2.623,5.304l-5.153,7.136
			c-0.967,1.338-2.156,1.143-2.644-0.434l-6.894-22.269c-0.487-1.576-2.227-3.033-3.863-3.238l-4.713-0.59
			c-1.637-0.205-3.779,0.713-4.761,2.04L313.617,88.09c-0.981,1.327-2.805,1.528-4.051,0.447l-5.467-4.738
			c-1.246-1.081-3.592-2.221-5.212-2.535l-14.776-2.86c-1.62-0.313-3.88-1.544-5.021-2.736l-11.181-11.666
			c-1.142-1.191-3.426-2.166-5.076-2.166h-18.667c-1.65,0-3.683-1.165-4.517-2.588L231.35,45.09
			c-0.834-1.423-2.849-2.366-4.476-2.095l-6.082,1.014c-1.627,0.271-3.605,1.678-4.396,3.127L199.27,78.534
			c-0.79,1.449-1.62,1.296-1.845-0.338l-3.851-28.056c-0.225-1.635-0.91-4.226-1.522-5.758l-9.771-24.429
			c-0.613-1.532-2.28-2.105-3.706-1.274l-10.817,6.311c-1.425,0.832-3.941,1.512-5.591,1.512h-5.333
			c-1.65,0-3.532,1.241-4.182,2.757l-5.637,13.151c-0.65,1.517-2.348,3.438-3.773,4.269l-2.817,1.644
			c-1.425,0.831-2.928,0.204-3.338-1.394l-4.506-17.521c-0.411-1.598-2.097-2.905-3.747-2.905h-8.667
			c-1.65,0-3.938,0.971-5.084,2.158L81.917,63.012c-1.146,1.187-2.554,3.424-3.128,4.97L72.21,85.69
			c-0.574,1.546-2.341,3.188-3.926,3.646L48.715,95c-1.585,0.458-4.034,1.538-5.441,2.398l-6.881,4.205
			c-1.408,0.86-3.867,1.903-5.464,2.316l-22.525,5.83c-1.597,0.414-1.597,1.09,0,1.504l22.525,5.83
			c1.597,0.414,4.056,1.456,5.464,2.316l6.881,4.205c1.408,0.86,3.856,1.939,5.441,2.398l19.569,5.664
			c1.585,0.459,3.352,2.1,3.926,3.646l6.578,17.707c0.574,1.547,1.982,3.784,3.128,4.971l33.165,34.352
			c1.146,1.187,3.434,2.158,5.084,2.158h8.667c1.65,0,3.336-1.308,3.747-2.905l4.506-17.521c0.411-1.598,1.913-2.226,3.338-1.394
			l2.817,1.643c1.425,0.832,3.123,2.753,3.773,4.27l5.637,13.15c0.65,1.517,2.532,2.758,4.182,2.758h5.333
			c1.65,0,4.166,0.681,5.591,1.512l10.817,6.311c1.425,0.831,3.093,0.258,3.706-1.273l9.771-24.43
			c0.613-1.531,1.298-4.123,1.522-5.757l3.851-28.057c0.225-1.634,1.055-1.786,1.845-0.338l17.127,31.398
			c0.79,1.448,2.768,2.855,4.396,3.127l6.082,1.014c1.627,0.271,3.642-0.672,4.476-2.095l8.299-14.158
			c0.834-1.423,2.867-2.588,4.517-2.588h18.667c1.65,0,3.935-0.975,5.076-2.166l11.181-11.666c1.142-1.191,3.401-2.423,5.021-2.736
			l14.776-2.859c1.62-0.313,3.966-1.454,5.212-2.535l5.467-4.738c1.246-1.081,3.069-0.88,4.051,0.447l32.432,43.844
			c0.981,1.327,3.124,2.244,4.761,2.04l4.713-0.59c1.637-0.204,3.376-1.662,3.863-3.238l6.894-22.268
			c0.487-1.576,1.677-1.771,2.644-0.435l5.153,7.137c0.967,1.337,2.146,3.725,2.623,5.304l10.934,36.256
			c0.477,1.579,1.496,1.678,2.267,0.219l9.866-18.693c0.771-1.459,2.404-1.75,3.63-0.646l8.874,7.986
			c1.226,1.104,3.449,1.429,4.94,0.723l7.245-3.432c1.491-0.706,3.928-0.698,5.414,0.018l12.594,6.062
			c1.486,0.716,3.993,1.699,5.57,2.185l2.933,0.902c1.577,0.485,3.008-0.46,3.179-2.101l4.043-38.701
			c0.171-1.641,1.195-4.004,2.276-5.25l4.737-5.467c1.081-1.246,2.442-3.529,3.026-5.072l7.21-19.055
			c0.584-1.543,2.297-3.35,3.808-4.014l11.175-4.918c1.511-0.664,1.511-1.752,0-2.417L479.245,104.376z"/>
	</g>
</g>
</svg>
