<?xml version="1.0" encoding="utf-8"?>
<!-- Generator: Adobe Illustrator 16.0.0, SVG Export Plug-In . SVG Version: 6.00 Build 0)  -->
<!DOCTYPE svg PUBLIC "-//W3C//DTD SVG 1.1//EN" "http://www.w3.org/Graphics/SVG/1.1/DTD/svg11.dtd">
<svg version="1.1" id="Layer_1" xmlns="http://www.w3.org/2000/svg" xmlns:xlink="http://www.w3.org/1999/xlink" x="0px" y="0px"
	 width="500px" height="220px" viewBox="0 0 500 220" enable-background="new 0 0 500 220" xml:space="preserve">
<g id="rhythmnode">
	<g id="background_1_">
		<polygon fill="#EE2A7B" points="405.219,192.003 379.437,151.015 361.33,134.923 353.16,127.433 341.288,124.29 326.631,129.524 
			315.397,150.668 300.522,150.668 283.082,125.523 276.114,136.592 267.029,136.592 253.099,124.938 227.615,129.388 
			209.233,141.861 197.075,136.379 179.45,156.116 158.339,161.874 145.133,146.781 124.437,136.693 112.342,129.713 
			68.014,122.324 41.499,125.971 10.253,110.661 41.503,95.034 68.014,98.679 112.342,91.291 124.499,84.278 144.124,74.223 
			158.316,59.124 179.45,64.888 197.075,84.625 209.233,79.143 227.615,91.616 253.099,96.066 267.029,84.412 276.114,84.412 
			283.082,95.481 300.522,70.336 315.397,70.336 326.631,91.479 341.288,96.714 353.16,93.572 361.342,86.071 379.437,69.989 
			405.219,29.001 423.175,29.001 437.672,47.884 448.695,43.345 467.194,104.125 486.898,110.502 467.194,116.879 448.695,177.659 
			437.672,173.12 423.175,192.003 		"/>
	</g>
	<g id="emitters_1_">
		<g>
			<path fill="#A52169" d="M403.266,32.166c1.396,0.878,1.82,2.74,0.941,4.136L386.1,65.082c-0.879,1.396-2.74,1.82-4.137,0.942
				l-1.624-1.021c-1.396-0.878-1.82-2.74-0.941-4.136l18.107-28.78c0.879-1.396,2.74-1.82,4.137-0.942L403.266,32.166z"/>
		</g>
		<g>
			<path fill="#A52169" d="M403.633,189.124c1.396-0.879,1.82-2.74,0.941-4.137l-18.107-28.78c-0.879-1.396-2.74-1.82-4.137-0.941
				l-1.624,1.021c-1.396,0.879-1.82,2.74-0.941,4.137l18.107,28.78c0.879,1.396,2.74,1.82,4.137,0.941L403.633,189.124z"/>
		</g>
		<g>
			<path fill="#A52169" d="M463.321,91.728c-1.576,0.487-3.265-0.404-3.752-1.98l-10.041-32.486
				c-0.487-1.576,0.404-3.265,1.98-3.752l1.832-0.566c1.576-0.487,3.265,0.404,3.752,1.98l10.041,32.486
				c0.487,1.576-0.404,3.265-1.98,3.752L463.321,91.728z"/>
		</g>
	</g>
	<g id="facets_1_">
		<polygon fill="#EE2A7B" points="360.666,135.67 393.668,99.911 378.666,151.668 		"/>
		<polygon fill="#EE2A7B" points="393.668,99.911 429.668,82.002 436.668,129.711 		"/>
		<polygon fill="#EE3E95" points="378.666,69.336 393.668,99.911 429.668,82.002 		"/>
		<polygon fill="#EF519D" points="404.666,28.001 429.668,82.002 378.666,69.336 		"/>
		<polygon fill="#DF2379" points="378.666,151.668 436.668,129.711 393.668,99.911 		"/>
		<polygon fill="#BC226F" points="449.332,179.003 436.668,129.711 467.999,117.67 		"/>
		<polygon fill="#D62475" points="404.666,193.003 436.668,129.711 423.668,193.003 		"/>
		<polygon fill="#BC226F" points="437.999,174.336 436.668,129.711 423.668,193.003 		"/>
		<polygon fill="#D62475" points="449.332,179.003 436.668,129.711 437.999,174.336 		"/>
		<polygon fill="#EE2A7B" points="378.666,151.668 404.666,193.003 436.668,129.711 		"/>
		<polygon fill="#EF519D" points="283.122,93.668 296.168,116.093 299.999,69.336 		"/>
		<polygon fill="#D62475" points="123.999,137.592 118.168,110.502 144.717,147.592 		"/>
		<polygon fill="#EF519D" points="157.999,58.001 167.668,105.856 179.999,64.001 		"/>
		<polygon fill="#EE3E95" points="423.668,28.001 404.666,28.001 429.668,82.002 		"/>
		<polygon fill="#EE2A7B" points="437.999,46.668 423.668,28.001 429.668,82.002 		"/>
		<polygon fill="#D62475" points="467.999,103.334 456.002,107.503 490.666,110.67 		"/>
		<polygon fill="#BC226F" points="456.002,107.503 467.999,117.67 490.666,110.67 		"/>
		<polygon fill="#EE2A7B" points="456.002,107.503 436.668,129.711 467.999,117.67 		"/>
		<polygon fill="#EE2A7B" points="467.999,103.334 429.668,82.002 449.332,42.001 		"/>
		<polygon fill="#DF2379" points="456.002,107.503 429.668,82.002 467.999,103.334 		"/>
		<polygon fill="#D62475" points="436.668,129.711 456.002,107.503 429.668,82.002 		"/>
		<polygon fill="#EE3E95" points="437.999,46.668 449.332,42.001 429.668,82.002 		"/>
		<polygon fill="#EE2A7B" points="341.332,95.668 364.335,113.835 352.666,92.668 		"/>
		<polygon fill="#EE3E95" points="364.335,113.835 360.666,85.334 352.666,92.668 		"/>
		<polygon fill="#EF519D" points="360.666,85.334 378.666,69.336 393.668,99.911 		"/>
		<polygon fill="#DF2379" points="364.335,113.835 360.666,135.67 393.668,99.911 		"/>
		<polygon fill="#EE3389" points="393.668,99.911 360.666,85.334 364.335,113.835 		"/>
		<polygon fill="#EE3389" points="352.666,128.336 364.335,113.835 360.666,135.67 		"/>
		<polygon fill="#DF2379" points="341.332,95.668 352.666,128.336 364.335,113.835 		"/>
		<polygon fill="#EE3389" points="352.666,128.336 341.332,95.668 341.332,125.336 		"/>
		<polygon fill="#EE3389" points="327.332,90.668 314.418,107.002 341.332,95.668 		"/>
		<polygon fill="#D62475" points="327.332,130.336 296.168,116.093 314.418,107.002 		"/>
		<polygon fill="#EE3E95" points="315.999,69.336 314.418,107.002 299.999,69.336 		"/>
		<polygon fill="#EE2A7B" points="327.332,90.668 315.999,69.336 314.418,107.002 		"/>
		<polygon fill="#EE2A7B" points="314.418,107.002 299.999,69.336 296.168,116.093 		"/>
		<polygon fill="#D62475" points="167.668,105.856 157.999,163.003 179.999,157.003 		"/>
		<polygon fill="#BC226F" points="197.332,137.592 167.668,105.856 179.999,157.003 		"/>
		<polygon fill="#EE2A7B" points="179.999,64.001 197.332,137.592 197.332,83.412 		"/>
		<polygon fill="#D62475" points="167.668,105.856 197.332,137.592 179.999,64.001 		"/>
		<polygon fill="#EE3389" points="216.918,108.752 235.256,113.502 227.999,90.668 		"/>
		<polygon fill="#D62475" points="227.999,130.336 235.256,113.502 252.813,126.003 		"/>
		<polygon fill="#D62475" points="257.668,111.002 235.256,113.502 252.813,126.003 		"/>
		<polygon fill="#EF519D" points="197.332,83.412 216.918,108.752 209.332,78.001 		"/>
		<polygon fill="#EE2A7B" points="227.999,90.668 216.918,108.752 209.332,78.001 		"/>
		<polygon fill="#EE3E95" points="216.918,108.752 197.332,137.592 197.332,83.412 		"/>
		<polygon fill="#D62475" points="209.332,143.003 216.918,108.752 197.332,137.592 		"/>
		<polygon fill="#BC226F" points="227.999,130.336 216.918,108.752 209.332,143.003 		"/>
		<polygon fill="#DF2379" points="235.256,113.502 216.918,108.752 227.999,130.336 		"/>
		<polygon fill="#EE3E95" points="252.813,95.001 257.668,111.002 227.999,90.668 		"/>
		<polygon fill="#EE2A7B" points="235.256,113.502 227.999,90.668 257.668,111.002 		"/>
		<polygon fill="#D62475" points="299.999,151.668 296.168,116.093 315.999,151.668 		"/>
		<polygon fill="#BC226F" points="327.332,130.336 296.168,116.093 315.999,151.668 		"/>
		<polygon fill="#DF2379" points="327.332,130.336 341.332,125.336 314.418,107.002 		"/>
		<polygon fill="#EE2A7B" points="341.332,125.336 341.332,95.668 314.418,107.002 		"/>
		<polygon fill="#EE3389" points="283.122,93.668 272.418,108.502 296.168,116.093 		"/>
		<polygon fill="#D62475" points="272.418,108.502 283.122,127.336 296.168,116.093 		"/>
		<polygon fill="#DF2379" points="283.122,127.336 296.168,116.093 299.999,151.668 		"/>
		<polygon fill="#EE3E95" points="266.666,83.412 272.418,108.502 257.668,111.002 		"/>
		<polygon fill="#BC226F" points="276.666,137.592 283.122,127.336 272.418,108.502 		"/>
		<polygon fill="#D62475" points="266.666,137.592 272.418,108.502 276.666,137.592 		"/>
		<polygon fill="#EE2A7B" points="252.813,126.003 257.668,111.002 266.666,137.592 		"/>
		<polygon fill="#DF2379" points="272.418,108.502 266.666,137.592 257.668,111.002 		"/>
		<polygon fill="#EE2A7B" points="276.666,83.412 272.418,108.502 283.122,93.668 		"/>
		<polygon fill="#EE3E95" points="266.666,83.412 272.418,108.502 276.666,83.412 		"/>
		<polygon fill="#EF519D" points="252.813,95.001 266.666,83.412 257.668,111.002 		"/>
		<polygon fill="#EF519D" points="41.333,94.001 43.418,108.502 7.999,110.67 		"/>
		<polygon fill="#DF2379" points="43.418,108.502 41.333,127.003 7.999,110.67 		"/>
		<polygon fill="#EE3E95" points="43.418,108.502 67.999,97.668 41.333,94.001 		"/>
		<polygon fill="#BC226F" points="67.999,123.336 43.418,108.502 41.333,127.003 		"/>
		<polygon fill="#EE3E95" points="67.999,97.668 81.168,112.752 43.418,108.502 		"/>
		<polygon fill="#EE2A7B" points="111.999,90.334 81.168,112.752 67.999,97.668 		"/>
		<polygon fill="#D62475" points="81.168,112.752 67.999,123.336 43.418,108.502 		"/>
		<polygon fill="#DF2379" points="118.168,110.502 81.168,112.752 111.999,130.67 		"/>
		<polygon fill="#EE3389" points="123.999,137.592 111.999,130.67 118.168,110.502 		"/>
		<polygon fill="#EE2A7B" points="118.168,110.502 142.668,103.668 143.514,73.412 		"/>
		<polygon fill="#DF2379" points="144.717,147.592 142.668,103.668 118.168,110.502 		"/>
		<polygon fill="#EE3E95" points="167.668,105.856 142.668,103.668 157.999,58.001 		"/>
		<polygon fill="#EE3389" points="157.999,163.003 142.668,103.668 167.668,105.856 		"/>
		<polygon fill="#DF2379" points="144.717,147.592 157.999,163.003 142.668,103.668 		"/>
		<polygon fill="#EE3389" points="143.514,73.412 157.999,58.001 142.668,103.668 		"/>
		<polygon fill="#BC226F" points="81.168,112.752 67.999,123.336 111.999,130.67 		"/>
		<polygon fill="#EE3E95" points="111.999,90.334 118.168,110.502 81.168,112.752 		"/>
		<polygon fill="#EF519D" points="123.999,83.412 118.168,110.502 111.999,90.334 		"/>
		<polygon fill="#EE3E95" points="143.514,73.412 123.999,83.412 118.168,110.502 		"/>
	</g>
	<g id="outline_1_">
		<path fill="none" stroke="#A52169" stroke-width="2" stroke-miterlimit="10" d="M470.854,104.258
			c-1.57-0.508-3.248-2.215-3.728-3.794l-16.921-55.593c-0.48-1.579-2.121-2.356-3.647-1.728l-5.784,2.382
			c-1.526,0.628-3.597,0.072-4.602-1.237L425.495,30.38c-1.005-1.309-3.177-2.379-4.827-2.379h-13.002
			c-1.65,0-3.719,1.143-4.598,2.54l-22.805,36.256c-0.879,1.397-2.606,3.437-3.84,4.533l-13.516,12.012
			c-1.233,1.096-3.237,2.905-4.453,4.021l-3.578,3.279c-1.216,1.115-3.516,2.373-5.111,2.795l-5.533,1.465
			c-1.596,0.422-4.172,0.313-5.726-0.241l-8.35-2.982c-1.554-0.555-3.459-2.201-4.232-3.658l-8.519-16.033
			c-0.773-1.457-2.757-2.649-4.407-2.649h-10c-1.65,0-3.77,1.109-4.71,2.465l-13.457,19.402c-0.94,1.355-2.429,1.322-3.309-0.074
			l-3.259-5.178c-0.88-1.396-2.948-2.539-4.599-2.539h-4c-1.65,0-4.035,0.866-5.301,1.925l-9.251,7.739
			c-1.266,1.059-3.631,1.692-5.256,1.409l-18.904-3.301c-1.625-0.284-4.072-1.274-5.438-2.201l-13.702-9.298
			c-1.365-0.927-3.713-1.13-5.217-0.451l-6.53,2.944c-1.504,0.679-3.634,0.227-4.733-1.004l-13.337-14.936
			c-1.099-1.231-3.3-2.593-4.893-3.027l-16.211-4.421c-1.592-0.435-3.819,0.194-4.949,1.396l-10.376,11.039
			c-1.13,1.202-3.256,2.802-4.725,3.554l-14.175,7.264c-1.468,0.752-3.839,2.042-5.269,2.867l-6.803,3.924
			c-1.429,0.825-3.93,1.721-5.558,1.992l-38.082,6.348c-1.627,0.271-4.296,0.309-5.931,0.084l-20.722-2.85
			c-1.635-0.225-4.18,0.195-5.655,0.933l-27.968,13.985c-1.476,0.738-1.471,1.936,0.011,2.662l27.946,13.692
			c1.481,0.727,4.031,1.137,5.666,0.911l20.722-2.85c1.635-0.225,4.304-0.187,5.931,0.085l38.082,6.348
			c1.627,0.271,4.128,1.168,5.558,1.992l6.803,3.924c1.429,0.824,3.814,2.086,5.3,2.803l15.314,7.393
			c1.486,0.717,3.583,2.326,4.66,3.576l9.365,10.866c1.077,1.25,3.261,1.917,4.853,1.483l16.211-4.422
			c1.592-0.434,3.794-1.796,4.893-3.026l13.337-14.937c1.099-1.23,3.229-1.683,4.733-1.004l6.53,2.944
			c1.504,0.679,3.852,0.476,5.217-0.451l13.702-9.298c1.365-0.927,3.812-1.917,5.438-2.2l18.904-3.302
			c1.625-0.283,3.99,0.351,5.256,1.409l9.251,7.739c1.266,1.059,3.65,1.925,5.301,1.925h4c1.65,0,3.719-1.143,4.599-2.539
			l3.259-5.178c0.88-1.396,2.368-1.43,3.309-0.074l13.457,19.402c0.94,1.355,3.06,2.465,4.71,2.465h10
			c1.65,0,3.634-1.192,4.407-2.649l8.519-16.033c0.773-1.457,2.679-3.104,4.232-3.658l8.35-2.982
			c1.554-0.555,4.13-0.663,5.726-0.241l5.533,1.465c1.596,0.422,3.896,1.68,5.111,2.795l3.578,3.279
			c1.216,1.115,3.22,2.924,4.453,4.021l13.516,12.012c1.233,1.097,2.961,3.136,3.84,4.532l22.805,36.257
			c0.879,1.396,2.947,2.539,4.598,2.539h13.002c1.65,0,3.822-1.071,4.827-2.38l10.677-13.907c1.005-1.309,3.075-1.866,4.602-1.237
			l5.784,2.382c1.526,0.629,3.167-0.149,3.647-1.728l16.921-55.593c0.479-1.579,2.163-3.269,3.739-3.755l16.935-5.23
			c1.576-0.486,1.582-1.3,0.012-1.809L470.854,104.258z"/>
	</g>
</g>
</svg>
