<?xml version="1.0" encoding="utf-8"?>
<!-- Generator: Adobe Illustrator 16.0.0, SVG Export Plug-In . SVG Version: 6.00 Build 0)  -->
<!DOCTYPE svg PUBLIC "-//W3C//DTD SVG 1.1//EN" "http://www.w3.org/Graphics/SVG/1.1/DTD/svg11.dtd">
<svg version="1.1" id="Layer_1" xmlns="http://www.w3.org/2000/svg" xmlns:xlink="http://www.w3.org/1999/xlink" x="0px" y="0px"
	 width="500px" height="220px" viewBox="0 0 500 220" enable-background="new 0 0 500 220" xml:space="preserve">
<g id="dynamicsnode">
	<g id="background_3_">
		<polygon fill="#92278F" points="255.597,184.987 242.091,182.415 228.197,141.726 215.967,130.424 199.994,124.213 
			172.763,135.105 152.763,155.751 143.258,143.078 105.464,132.955 62.966,132.955 29.147,110.622 62.966,88.289 105.464,88.289 
			143.258,78.166 152.763,65.493 172.763,86.138 199.994,97.031 215.967,90.82 228.197,79.519 242.091,38.83 255.597,36.257 
			271.756,30.439 286.446,44.493 294.039,70.721 306.695,64.393 332.856,75.796 346.326,63.674 370.907,66.909 385.653,79.549 
			395.479,59.898 414.492,42.197 434.797,37.121 449.701,66.928 455.1,102.689 470.332,108.319 470.332,112.926 455.1,118.555 
			449.701,154.316 434.797,184.123 414.492,179.048 395.479,161.347 385.653,141.695 370.907,154.335 346.326,157.57 
			332.856,145.448 306.695,156.852 294.039,150.523 286.446,176.752 271.756,190.805 		"/>
	</g>
	<g id="emitters_3_">
		<g>
			<path fill="#632263" d="M242.939,184.395c-0.445,1.589,0.492,3.249,2.082,3.689l24.576,6.805c1.591,0.44,3.896-0.102,5.124-1.204
				l11.039-9.915c1.229-1.103,1.236-2.917,0.02-4.03l-0.697-0.64c-1.217-1.113-3.221-1.127-4.451-0.028l-7.182,6.405
				c-1.23,1.099-3.547,1.666-5.146,1.262l-21.39-5.411c-1.6-0.404-3.272,0.564-3.718,2.153L242.939,184.395z"/>
		</g>
		<g>
			<path fill="#632263" d="M242.939,36.609c-0.445-1.589,0.492-3.249,2.082-3.689l24.576-6.805c1.591-0.44,3.896,0.101,5.124,1.204
				l11.039,9.916c1.229,1.103,1.236,2.916,0.02,4.03l-0.697,0.639c-1.217,1.114-3.221,1.127-4.451,0.029l-7.182-6.405
				c-1.23-1.099-3.547-1.666-5.146-1.261l-21.39,5.41c-1.6,0.405-3.272-0.564-3.718-2.153L242.939,36.609z"/>
		</g>
	</g>
	<g id="facets_3_">
		<polygon fill="#A9499B" points="27.333,110.538 52.333,102.271 62.666,87.373 		"/>
		<polygon fill="#9D3694" points="62.666,134.039 52.333,102.271 27.333,110.538 		"/>
		<polygon fill="#B063A8" points="52.333,102.271 105.333,87.205 62.666,87.373 		"/>
		<polygon fill="#7D297B" points="62.666,134.039 105.333,133.871 52.333,102.271 		"/>
		<polygon fill="#9D3694" points="105.333,87.205 105.333,133.871 52.333,102.271 		"/>
		<polygon fill="#A84E9D" points="142.666,77.373 105.333,133.871 105.333,87.205 		"/>
		<polygon fill="#AA4B9C" points="173.333,85.205 142.666,77.373 152.666,63.872 		"/>
		<polygon fill="#B063A8" points="105.333,133.871 173.333,85.205 142.666,77.373 		"/>
		<polygon fill="#9D3694" points="142.666,143.871 173.333,85.205 105.333,133.871 		"/>
		<polygon fill="#A9499B" points="173.333,135.871 173.333,85.205 142.666,143.871 152.541,157.205 		"/>
		<polygon fill="#9A3493" points="200,95.872 173.333,135.871 173.333,85.205 		"/>
		<polygon fill="#7D297B" points="200,125.204 173.333,135.871 200,95.872 		"/>
		<polygon fill="#B063A8" points="266.998,105.622 215.428,89.873 200,95.872 		"/>
		<polygon fill="#A9499B" points="200,125.204 266.998,105.622 200,95.872 		"/>
		<polygon fill="#7D297B" points="227.333,142.204 266.998,105.622 200,125.204 217.233,132.871 		"/>
		<polygon fill="#B063A8" points="241.333,38.04 266.998,105.622 227.333,78.872 		"/>
		<polygon fill="#A84E9D" points="215.428,89.873 227.333,78.872 266.998,105.622 		"/>
		<polygon fill="#9D3694" points="241.333,183.204 266.998,105.622 227.333,142.204 		"/>
		<polygon fill="#A84E9D" points="273.666,66.204 255.332,34.373 241.333,38.04 266.998,105.622 		"/>
		<polygon fill="#9B3694" points="272,29.373 273.666,66.204 254.451,34.373 		"/>
		<polygon fill="#913A96" points="273.666,157.205 266.998,105.622 241.333,183.204 255.332,186.871 		"/>
		<polygon fill="#A84E9D" points="292.666,121.205 266.998,105.622 273.666,157.205 		"/>
		<polygon fill="#9A3493" points="287.332,177.372 273.666,157.205 272,191.871 		"/>
		<polygon fill="#7D297B" points="255.332,186.871 272,191.871 273.666,157.205 		"/>
		<polygon fill="#9A3493" points="292.666,121.205 294.666,151.871 287.332,177.372 273.666,157.205 		"/>
		<polygon fill="#9D3694" points="266.998,105.622 273.666,66.204 292.666,121.205 		"/>
		<polygon fill="#913A96" points="287.332,43.872 273.666,66.204 272,29.373 		"/>
		<polygon fill="#9D3694" points="294.666,69.205 273.666,66.204 287.332,43.872 		"/>
		<polygon fill="#AB4C9C" points="292.666,121.205 294.666,69.205 273.666,66.204 		"/>
		<polygon fill="#A84E9D" points="324.332,93.704 306.666,63.205 294.666,69.205 		"/>
		<polygon fill="#B063A8" points="292.666,121.205 324.332,93.704 294.666,69.205 		"/>
		<polygon fill="#A9499B" points="331.998,119.87 292.666,121.205 324.332,93.704 		"/>
		<polygon fill="#9A3493" points="294.666,151.871 331.998,119.87 292.666,121.205 		"/>
		<polygon fill="#7D297B" points="306.666,158.039 294.666,151.871 331.998,119.87 		"/>
		<polygon fill="#9D3694" points="332.666,146.706 331.998,119.87 306.666,158.039 		"/>
		<polygon fill="#A84E9D" points="371.332,96.247 324.332,93.704 331.998,119.87 		"/>
		<polygon fill="#9A3493" points="332.666,74.538 324.332,93.704 306.666,63.205 		"/>
		<polygon fill="#9D3694" points="371.332,96.247 332.666,74.538 324.332,93.704 		"/>
		<polygon fill="#B063A8" points="346,62.538 371.332,96.247 332.666,74.538 		"/>
		<polygon fill="#913A96" points="332.666,146.706 371.332,96.247 331.998,119.87 		"/>
		<polygon fill="#A84E9D" points="371.332,127.203 371.332,96.247 332.666,146.706 		"/>
		<polygon fill="#9A3493" points="346,158.706 371.332,127.203 332.666,146.706 		"/>
		<polygon fill="#7D297B" points="371.332,155.204 371.332,127.203 346,158.706 		"/>
		<polygon fill="#B063A8" points="426.998,107.454 371.332,96.247 371.332,127.203 		"/>
		<polygon fill="#A84E9D" points="385.332,77.872 371.332,96.247 371.332,66.04 		"/>
		<polygon fill="#9D3694" points="346,62.538 371.332,66.04 371.332,96.247 		"/>
		<polygon fill="#913A96" points="426.998,107.454 385.332,77.872 371.332,96.247 		"/>
		<polygon fill="#9A3493" points="371.332,155.204 426.998,107.454 371.332,127.203 		"/>
		<polygon fill="#B063A8" points="394.666,59.373 426.998,107.454 385.332,77.872 		"/>
		<polygon fill="#B063A8" points="436.332,149.288 385.332,143.288 426.998,107.454 		"/>
		<polygon fill="#913A96" points="394.666,161.871 436.332,149.288 385.332,143.288 		"/>
		<polygon fill="#9D3694" points="414,179.871 436.332,149.288 394.666,161.871 		"/>
		<polygon fill="#7D297B" points="435.332,185.204 436.332,149.288 414,179.871 		"/>
		<polygon fill="#913A96" points="450.666,154.706 436.332,149.288 435.332,185.204 		"/>
		<polygon fill="#9B3694" points="456,119.372 436.332,149.288 450.666,154.706 		"/>
		<polygon fill="#913A96" points="426.998,107.454 456,119.372 436.332,149.288 		"/>
		<polygon fill="#7D297B" points="471.332,113.706 452.498,109.871 456,119.372 		"/>
		<polygon fill="#C474AF" points="471.332,107.706 452.498,109.871 471.332,113.706 		"/>
		<polygon fill="#A84E9D" points="456,102.04 452.498,109.871 471.332,107.706 		"/>
		<polygon fill="#9A3493" points="456,119.372 452.498,109.871 426.998,107.454 		"/>
		<polygon fill="#9D3694" points="425.998,69.205 394.666,59.373 414,41.373 		"/>
		<polygon fill="#A84E9D" points="426.998,107.454 425.998,69.205 394.666,59.373 		"/>
		<polygon fill="#A84E9D" points="435.332,35.872 425.998,69.205 414,41.373 		"/>
		<polygon fill="#913A96" points="450.666,66.538 425.998,69.205 435.332,35.872 		"/>
		<polygon fill="#913A96" points="456,102.04 426.998,107.454 452.498,109.871 		"/>
		<polygon fill="#7D297B" points="425.998,69.205 456,102.04 450.666,66.538 		"/>
		<polygon fill="#9B3694" points="426.998,107.454 456,102.04 425.998,69.205 		"/>
	</g>
	<g id="outline_3_">
		<path fill="none" stroke="#632263" stroke-width="2" stroke-miterlimit="10" d="M471.332,110.622c0-1.65-1.267-3.468-2.814-4.04
			l-9.703-3.586c-1.548-0.572-3.016-2.375-3.263-4.006l-4.438-29.401c-0.247-1.631-1.052-4.174-1.79-5.649l-12.65-25.3
			c-0.738-1.476-2.651-2.355-4.252-1.956l-15.512,3.878c-1.601,0.4-3.898,1.647-5.105,2.772l-14.943,13.911
			c-1.207,1.125-2.799,3.252-3.537,4.728l-6.65,13.301c-0.738,1.476-2.367,1.805-3.619,0.731l-9.445-8.096
			c-1.252-1.074-3.616-2.128-5.252-2.344l-19.383-2.551c-1.636-0.215-3.979,0.512-5.204,1.615l-8.875,7.986
			c-1.226,1.104-3.467,1.467-4.979,0.808l-20.5-8.936c-1.513-0.659-3.957-0.595-5.434,0.143l-6.633,3.316
			c-1.477,0.738-3.059,0.045-3.518-1.54l-5.666-19.569c-0.459-1.585-1.81-3.815-3.002-4.956l-10.996-10.52
			c-1.192-1.141-3.461-1.686-5.041-1.212l-10.922,3.276c-1.58,0.474-4.179,1.204-5.775,1.622l-8.195,2.146
			c-1.596,0.418-3.338,2.038-3.871,3.599l-12.062,35.322c-0.533,1.562-1.961,3.755-3.172,4.875l-7.498,6.929
			c-1.211,1.12-3.461,2.525-4.999,3.124l-9.837,3.824c-1.538,0.598-4.049,0.586-5.582-0.027l-21.096-8.438
			c-1.532-0.613-3.725-2.084-4.873-3.269l-16.492-17.023c-1.148-1.185-2.897-1.075-3.887,0.245l-6.4,8.533
			c-0.99,1.32-3.104,2.749-4.698,3.176l-31.537,8.447c-1.594,0.427-4.248,0.776-5.898,0.776H65.666c-1.65,0-4.126,0.744-5.503,1.653
			l-30.326,20.026c-1.377,0.909-1.377,2.397,0,3.307l30.326,20.026c1.377,0.909,3.854,1.653,5.503,1.653h36.667
			c1.65,0,4.304,0.35,5.898,0.776l31.537,8.447c1.594,0.427,3.708,1.856,4.698,3.177l6.4,8.532c0.99,1.32,2.739,1.431,3.887,0.246
			l16.492-17.024c1.148-1.185,3.341-2.655,4.873-3.269l21.096-8.438c1.532-0.613,4.044-0.625,5.582-0.027l9.837,3.825
			c1.538,0.598,3.788,2.003,4.999,3.123l7.498,6.929c1.211,1.12,2.639,3.313,3.172,4.875l12.062,35.322
			c0.533,1.562,2.275,3.181,3.871,3.599l8.195,2.147c1.597,0.418,4.195,1.147,5.775,1.622l10.922,3.275
			c1.58,0.475,3.849-0.071,5.041-1.212l10.996-10.519c1.192-1.141,2.543-3.371,3.002-4.956l5.666-19.569
			c0.459-1.585,2.041-2.278,3.518-1.54l6.633,3.316c1.477,0.738,3.921,0.803,5.434,0.143l20.5-8.936
			c1.513-0.659,3.754-0.295,4.979,0.809l8.875,7.986c1.226,1.104,3.568,1.831,5.204,1.615l19.383-2.551
			c1.636-0.216,4-1.271,5.252-2.344l9.445-8.096c1.252-1.073,2.881-0.745,3.619,0.731l6.65,13.3c0.738,1.477,2.33,3.604,3.537,4.728
			l14.943,13.912c1.207,1.124,3.505,2.371,5.105,2.771l15.512,3.878c1.601,0.4,3.514-0.479,4.252-1.956l12.65-25.299
			c0.738-1.477,1.543-4.019,1.79-5.65l4.438-29.4c0.247-1.632,1.715-3.435,3.263-4.007l9.703-3.586
			C470.065,114.09,471.332,112.272,471.332,110.622L471.332,110.622z"/>
	</g>
</g>
</svg>
