<?xml version="1.0" encoding="utf-8"?>
<!-- Generator: Adobe Illustrator 16.0.0, SVG Export Plug-In . SVG Version: 6.00 Build 0)  -->
<!DOCTYPE svg PUBLIC "-//W3C//DTD SVG 1.1//EN" "http://www.w3.org/Graphics/SVG/1.1/DTD/svg11.dtd">
<svg version="1.1" id="Layer_1" xmlns="http://www.w3.org/2000/svg" xmlns:xlink="http://www.w3.org/1999/xlink" x="0px" y="0px"
	 width="30px" height="30px" viewBox="0 0 30 30" enable-background="new 0 0 30 30" xml:space="preserve">
<g id="chordthree">
	<g>
		<path fill="#99B63C" d="M4.404,26.444c-1.001,0-1.709-0.354-2.039-0.927L15,18.219l12.64,7.298
			c-0.33,0.571-1.039,0.928-2.043,0.928H4.404z"/>
	</g>
	<g>
		<path fill="#C3D946" d="M15,18.219V3.625c0.661,0,1.323,0.435,1.826,1.305l10.596,18.353c0.502,0.869,0.548,1.659,0.218,2.234
			L15,18.219z"/>
	</g>
	<g>
		<path fill="#A9CF38" d="M2.365,25.518c-0.335-0.571-0.29-1.364,0.213-2.235L13.174,4.93C13.677,4.06,14.34,3.625,15,3.625v14.594
			L2.365,25.518z"/>
	</g>
</g>
</svg>
