<?xml version="1.0" encoding="utf-8"?>
<!-- Generator: Adobe Illustrator 16.0.0, SVG Export Plug-In . SVG Version: 6.00 Build 0)  -->
<!DOCTYPE svg PUBLIC "-//W3C//DTD SVG 1.1//EN" "http://www.w3.org/Graphics/SVG/1.1/DTD/svg11.dtd">
<svg version="1.1" id="Layer_1" xmlns="http://www.w3.org/2000/svg" xmlns:xlink="http://www.w3.org/1999/xlink" x="0px" y="0px"
	 width="30px" height="30px" viewBox="0 0 30 30" enable-background="new 0 0 30 30" xml:space="preserve">
<g id="chordthree" display="none">
	<g display="inline">
		<path fill="#99B63C" d="M4.404,26.444c-1.001,0-1.709-0.354-2.039-0.927L15,18.219l12.64,7.298
			c-0.33,0.571-1.039,0.928-2.043,0.928H4.404z"/>
	</g>
	<g display="inline">
		<path fill="#C3D946" d="M15,18.219V3.625c0.661,0,1.323,0.435,1.826,1.305l10.596,18.353c0.502,0.869,0.548,1.659,0.218,2.234
			L15,18.219z"/>
	</g>
	<g display="inline">
		<path fill="#A9CF38" d="M2.365,25.518c-0.335-0.571-0.29-1.364,0.213-2.235L13.174,4.93C13.677,4.06,14.34,3.625,15,3.625v14.594
			L2.365,25.518z"/>
	</g>
</g>
<g id="chordfour" display="none">
	<path display="inline" fill="#C3D946" d="M15.001,1.396c0.551,0,1.101,0.314,1.518,0.943l8.843,13.31
		c0.386,0.58,0.552,1.296,0.516,2.005H15.001V1.396z"/>
	<path display="inline" fill="#A9CF38" d="M4.124,17.654c-0.037-0.709,0.132-1.425,0.516-2.005l8.844-13.31
		c0.417-0.628,0.967-0.943,1.518-0.943v16.258H4.124z"/>
	<path display="inline" fill="#A9CF38" d="M15.001,17.654h10.876c-0.042,0.828-0.361,1.645-0.937,2.22l-8,7.999
		c-0.532,0.534-1.236,0.8-1.939,0.8V17.654z"/>
	<path display="inline" fill="#99B63C" d="M5.062,19.874c-0.574-0.575-0.895-1.392-0.938-2.22h10.877v11.019
		c-0.703,0-1.406-0.266-1.938-0.8L5.062,19.874z"/>
</g>
<g id="chordfive" display="none">
	<path display="inline" fill="#A9CF38" d="M15.022,13.571L2.691,10.986c0.16-0.497,0.494-0.938,0.963-1.201l9.637-5.413
		c0.472-0.263,1.09-0.396,1.709-0.396L15.022,13.571z"/>
	<path display="inline" fill="#C3D946" d="M15,3.977c0.62-0.002,1.239,0.13,1.709,0.396l9.637,5.413
		c0.456,0.256,0.782,0.676,0.949,1.154l-12.272,2.632L15,3.977z"/>
	<path display="inline" fill="#99B63C" d="M15.022,13.571L9.278,25.476c-0.444-0.313-0.814-0.719-1.02-1.161L2.773,12.523
		c-0.227-0.49-0.242-1.042-0.082-1.537L15.022,13.571z"/>
	<path display="inline" fill="#99B63C" d="M11.045,26.093c-0.59,0-1.232-0.239-1.767-0.617l5.744-11.905l5.658,11.933
		c-0.525,0.36-1.149,0.589-1.723,0.589H11.045z"/>
	<path display="inline" fill="#A9CF38" d="M15.022,13.571l12.272-2.632c0.175,0.508,0.168,1.079-0.066,1.584l-5.484,11.792
		c-0.213,0.456-0.6,0.874-1.063,1.189L15.022,13.571z"/>
</g>
<g id="melody" display="none">
	<g display="inline">
		<g>
			<circle fill="#27AAE1" cx="15.001" cy="15.035" r="11.555"/>
		</g>
	</g>
	<g display="inline">
		<path fill="#229CC6" d="M9.116,5.087c-4.651,2.745-6.874,8.476-5.021,13.767c0.66,1.884,1.759,3.489,3.14,4.742L9.116,5.087z"/>
	</g>
	<g display="inline">
		<path fill="#3EC2F1" d="M25.411,20.046c1.647-3.424,1.46-7.258-0.18-10.382c-0.547-1.042-1.253-2.007-2.107-2.85l-8.018,19.777
			C19.366,26.549,23.439,24.144,25.411,20.046z"/>
	</g>
</g>
<g id="rhythmmed">
	<path fill="#EE4799" d="M13.915,12.08V3.37C10.269,3.715,6.837,5.752,4.87,9.158L13.915,12.08z"/>
	<polygon fill="#EE2A7B" points="11.922,15.529 13.915,12.08 4.87,9.158 	"/>
	<path fill="#B22579" d="M11.922,15.529L4.87,9.158c-1.965,3.407-2.013,7.397-0.49,10.726L11.922,15.529z"/>
	<path fill="#EE2A7B" d="M16.086,6.644C17.16,6.782,18.225,7.126,19.22,7.7c3.708,2.142,5.169,6.694,3.563,10.547l2.844,1.641
		c2.493-5.422,0.49-11.969-4.778-15.011c-1.509-0.87-3.132-1.361-4.763-1.511V6.644z"/>
	<path fill="#EE2A7B" d="M21.695,20.129c-2.532,3.317-7.205,4.328-10.914,2.188c-0.995-0.574-1.828-1.322-2.484-2.184L5.461,21.77
		c0.945,1.336,2.181,2.499,3.691,3.369c5.268,3.044,11.94,1.505,15.388-3.367L21.695,20.129z"/>
</g>
</svg>
